<svg xmlns="http://www.w3.org/2000/svg" viewBox="0 0 1200 720"><defs><linearGradient id="g" x1="0" x2="1"><stop stop-color="#111827"/><stop offset="1" stop-color="#0b1220"/></linearGradient></defs><rect width="1200" height="720" rx="28" fill="#070b11"/><rect x="24" y="24" width="1152" height="672" rx="24" fill="url(#g)" stroke="#263041"/><rect x="24" y="24" width="220" height="672" rx="24" fill="#0d141e"/><text x="58" y="76" fill="#a8ff60" font-family="Arial" font-size="24" font-weight="700">AION</text><g fill="#778195" font-family="Arial" font-size="16"><text x="58" y="132">Executive Overview</text><text x="58" y="180">Departments</text><text x="58" y="228">Agent Workforce</text><text x="58" y="276">Event System</text><text x="58" y="324">Command Layer</text></g><text x="282" y="80" fill="#f5f7fb" font-family="Arial" font-size="28" font-weight="700">Executive Command Center</text><text x="282" y="110" fill="#8f9bad" font-family="Arial" font-size="14">Operational intelligence across systems, agents, and revenue</text><g><rect x="282" y="148" width="260" height="128" rx="18" fill="#121a25" stroke="#263041"/><text x="306" y="182" fill="#8f9bad" font-family="Arial" font-size="14">COMPANY HEALTH</text><text x="306" y="236" fill="#a8ff60" font-family="Arial" font-size="42" font-weight="700">86%</text><rect x="562" y="148" width="260" height="128" rx="18" fill="#121a25" stroke="#263041"/><text x="586" y="182" fill="#8f9bad" font-family="Arial" font-size="14">ACTIVE AGENTS</text><text x="586" y="236" fill="#f5f7fb" font-family="Arial" font-size="42" font-weight="700">12</text><rect x="842" y="148" width="304" height="128" rx="18" fill="#121a25" stroke="#263041"/><text x="866" y="182" fill="#8f9bad" font-family="Arial" font-size="14">CRITICAL ALERTS</text><text x="866" y="236" fill="#63e6ff" font-family="Arial" font-size="42" font-weight="700">03</text></g><rect x="282" y="304" width="534" height="328" rx="20" fill="#101720" stroke="#263041"/><text x="308" y="342" fill="#f5f7fb" font-family="Arial" font-size="18" font-weight="700">System Health Timeline</text><polyline points="316,550 380,500 444,520 508,430 572,458 636,390 700,410 770,340" fill="none" stroke="#a8ff60" stroke-width="8" stroke-linecap="round" stroke-linejoin="round"/><g fill="#a8ff60"><circle cx="316" cy="550" r="7"/><circle cx="380" cy="500" r="7"/><circle cx="444" cy="520" r="7"/><circle cx="508" cy="430" r="7"/><circle cx="572" cy="458" r="7"/><circle cx="636" cy="390" r="7"/><circle cx="700" cy="410" r="7"/><circle cx="770" cy="340" r="7"/></g><rect x="836" y="304" width="310" height="328" rx="20" fill="#101720" stroke="#263041"/><text x="862" y="342" fill="#f5f7fb" font-family="Arial" font-size="18" font-weight="700">CEO Action Center</text><g fill="#182230"><rect x="862" y="372" width="258" height="64" rx="12"/><rect x="862" y="450" width="258" height="64" rx="12"/><rect x="862" y="528" width="258" height="64" rx="12"/></g><g fill="#cbd5e1" font-family="Arial" font-size="14"><text x="882" y="410">Review revenue alert</text><text x="882" y="488">Approve agent workflow</text><text x="882" y="566">Resolve event backlog</text></g></svg>