<svg xmlns="http://www.w3.org/2000/svg" viewBox="0 0 1200 720"><rect width="1200" height="720" rx="28" fill="#080b11"/><rect x="24" y="24" width="1152" height="672" rx="24" fill="#111723" stroke="#263041"/><rect x="24" y="24" width="190" height="672" rx="24" fill="#0c1119"/><text x="52" y="72" fill="#63e6ff" font-family="Arial" font-size="24" font-weight="700">CreatorOS</text><g fill="#7f8ba0" font-family="Arial" font-size="15"><text x="52" y="132">Dashboard</text><text x="52" y="178">Content Plan</text><text x="52" y="224">Audience</text><text x="52" y="270">Agents</text><text x="52" y="316">Workflows</text><text x="52" y="362">Reports</text></g><text x="252" y="74" fill="#f5f7fb" font-family="Arial" font-size="28" font-weight="700">Creator Business Overview</text><text x="252" y="104" fill="#8f9bad" font-family="Arial" font-size="14">AI-powered intelligence for growth, revenue, and execution</text><g><rect x="252" y="140" width="210" height="112" rx="16" fill="#171f2b" stroke="#2b3748"/><text x="274" y="174" fill="#8f9bad" font-family="Arial" font-size="13">MONTHLY REVENUE</text><text x="274" y="222" fill="#f5f7fb" font-family="Arial" font-size="34" font-weight="700">$18.4K</text><rect x="480" y="140" width="210" height="112" rx="16" fill="#171f2b" stroke="#2b3748"/><text x="502" y="174" fill="#8f9bad" font-family="Arial" font-size="13">AUDIENCE GROWTH</text><text x="502" y="222" fill="#63e6ff" font-family="Arial" font-size="34" font-weight="700">+12.8%</text><rect x="708" y="140" width="210" height="112" rx="16" fill="#171f2b" stroke="#2b3748"/><text x="730" y="174" fill="#8f9bad" font-family="Arial" font-size="13">CONTENT SCORE</text><text x="730" y="222" fill="#a8ff60" font-family="Arial" font-size="34" font-weight="700">84</text><rect x="936" y="140" width="210" height="112" rx="16" fill="#171f2b" stroke="#2b3748"/><text x="958" y="174" fill="#8f9bad" font-family="Arial" font-size="13">ACTIVE AGENTS</text><text x="958" y="222" fill="#f5f7fb" font-family="Arial" font-size="34" font-weight="700">06</text></g><rect x="252" y="286" width="568" height="338" rx="18" fill="#131b26" stroke="#2b3748"/><text x="278" y="326" fill="#f5f7fb" font-family="Arial" font-size="18" font-weight="700">Revenue by Platform</text><g fill="#263244"><rect x="294" y="520" width="64" height="70" rx="8"/><rect x="388" y="460" width="64" height="130" rx="8"/><rect x="482" y="405" width="64" height="185" rx="8"/><rect x="576" y="365" width="64" height="225" rx="8"/><rect x="670" y="330" width="64" height="260" rx="8"/></g><g fill="#63e6ff"><rect x="294" y="490" width="64" height="100" rx="8"/><rect x="388" y="430" width="64" height="160" rx="8"/><rect x="482" y="375" width="64" height="215" rx="8"/><rect x="576" y="335" width="64" height="255" rx="8"/><rect x="670" y="300" width="64" height="290" rx="8"/></g><rect x="840" y="286" width="306" height="338" rx="18" fill="#131b26" stroke="#2b3748"/><text x="866" y="326" fill="#f5f7fb" font-family="Arial" font-size="18" font-weight="700">AI Recommendations</text><g fill="#1a2532"><rect x="866" y="354" width="254" height="70" rx="12"/><rect x="866" y="438" width="254" height="70" rx="12"/><rect x="866" y="522" width="254" height="70" rx="12"/></g><g fill="#cbd5e1" font-family="Arial" font-size="14"><text x="884" y="384">Double down on top format</text><text x="884" y="468">Launch retention workflow</text><text x="884" y="552">Review audience drop-off</text></g></svg>